<?xml version="1.0" encoding="utf-8"?>
<svg viewBox="0 0 500 500" xmlns="http://www.w3.org/2000/svg">
    <defs>
        <linearGradient gradientUnits="userSpaceOnUse" x1="63.57" y1="0" x2="63.57" y2="96.36" id="gradient-0"
                        gradientTransform="matrix(0.750826, -0.576321, 1.104385, 1.095411, -25.461922, 33.983736)">
            <stop offset="0" style="stop-color: #bada55"/>
            <stop offset="1" style="stop-color: rgb(64, 67, 209);"/>
        </linearGradient>
    </defs>
    <g id="图层_2" transform="matrix(3.379149, 0, 0, 3.576481, 30.960779, 57.311901)" style="">
        <g id="Discord_Logos">
            <g id="Discord_Logo_-_Large_-_White">
                <path d="M107.7,8.07A105.15,105.15,0,0,0,81.47,0a72.06,72.06,0,0,0-3.36,6.83A97.68,97.68,0,0,0,49,6.83,72.37,72.37,0,0,0,45.64,0,105.89,105.89,0,0,0,19.39,8.09C2.79,32.65-1.71,56.6.54,80.21h0A105.73,105.73,0,0,0,32.71,96.36,77.7,77.7,0,0,0,39.6,85.25a68.42,68.42,0,0,1-10.85-5.18c.91-.66,1.8-1.34,2.66-2a75.57,75.57,0,0,0,64.32,0c.87.71,1.76,1.39,2.66,2a68.68,68.68,0,0,1-10.87,5.19,77,77,0,0,0,6.89,11.1A105.25,105.25,0,0,0,126.6,80.22h0C129.24,52.84,122.09,29.11,107.7,8.07ZM42.45,65.69C36.18,65.69,31,60,31,53s5-12.74,11.43-12.74S54,46,53.89,53,48.84,65.69,42.45,65.69Zm42.24,0C78.41,65.69,73.25,60,73.25,53s5-12.74,11.44-12.74S96.23,46,96.12,53,91.08,65.69,84.69,65.69Z"
                      style="paint-order: fill; fill: url(#gradient-0);"/>
            </g>
        </g>
    </g>
</svg>